<?xml version="1.0" encoding="utf-8"?>
<!-- Generator: Adobe Illustrator 25.0.1, SVG Export Plug-In . SVG Version: 6.00 Build 0)  -->
<svg version="1.1" id="Calque_1" xmlns="http://www.w3.org/2000/svg" xmlns:xlink="http://www.w3.org/1999/xlink" x="0px" y="0px"
	 viewBox="0 0 512 512" style="enable-background:new 0 0 512 512;" xml:space="preserve">
<style type="text/css">
	.st0{fill:#CAE7EF;}
	.st1{clip-path:url(#SVGID_2_);}
	.st2{fill:#5D73D8;}
	.st3{opacity:0.38;fill:#A2D7E0;enable-background:new    ;}
	.st4{fill:#F9F9F9;}
</style>
<g>
	<path class="st0" d="M322,326.2c0.7-0.3,0.2-1.8,0.9-2.1c20-9.8,37.7-23.8,51.9-41.1c22.2-26.8,28.9-66.8,28.3-105.3
		c0-1.2,1.2-4.5,1.2-5.7c-0.4-14-1.5-27.9-3.3-41.8C396.6,96,378.1,32.9,367.9,0H144.1c-10.3,32.9-28.7,96-33.1,130.2
		c-1.3,9.8-2.3,20.7-2.9,32.1c0,0.7,1.2,3.2,1.2,4c-1.9,41.2,2.7,86.3,27.1,115.7c15.5,18.8,32.8,32.1,52.7,41.8
		c0.4,0.2,0.6,2.2,1.1,2.4c26.8,12.8,43.9,39.8,44,69.5v10c0,37.4-25.8,70.1-62.3,77.9c-1,0.2-2.1,0.4-3.1,0.6c0,0-27.8,4-33.1,27.8
		h241.1c-5.3-23.8-33.1-27.8-33.1-27.8l-3.1-0.6c-36.5-7.8-62.3-40.6-62.3-77.9v-10C278,366,295.1,339,322,326.2L322,326.2z"/>
	<g>
		<defs>
			<path id="SVGID_1_" d="M338.8,316.8c16.4-12.7,20.3-15.2,36.8-32.2c22.2-26.8,29.4-66.1,28.8-104.6c0-1.2-0.1-6.9-0.1-8.1
				c-0.4-14-1.5-27.9-3.3-41.8C396.6,96,378.1,32.9,367.9,0H144.1c-10.3,32.9-28.7,96-33.1,130.2c-1.3,9.8-2.3,20.7-2.9,32.1
				c0,0.7-0.4,18.4-0.5,19.1c1.6,47.8,4.1,73.3,28.5,102.7c15.5,18.8,35.3,32.9,55.2,42.6c0,0,20.6,12.3,67,12.3
				S338.8,316.8,338.8,316.8z"/>
		</defs>
		<clipPath id="SVGID_2_">
			<use xlink:href="#SVGID_1_"  style="overflow:visible;"/>
		</clipPath>
		<g class="st1">
			<rect id="wine" x="103.7" y="27.2" class="st2" width="306" height="311.9"/>
		</g>
	</g>
	<path class="st3" d="M277.9,395.7v10c0,37.4,25.8,70.1,62.3,77.9c1,0.2,2.1,0.4,3.1,0.6c0,0,27.8,4,33.1,27.8h-20.8
		c-3.5-14.5-24.7-14.9-36.2-17.4c-36.5-7.8-62.3-51.7-62.3-89v-10c0-29.7,17.2-65.9,44-78.8c21.3-10.3,40-25.1,55-43.3
		c31.6-38.1,29.9-97.8,24-143.4C375.8,96,357.4,32.9,347.1,0h20.8c10.3,32.9,28.7,96,33.1,130.2c5.9,45.6,7.6,114.6-24,152.7
		c-15,18.3-33.7,33-55,43.3C295.2,339,278.1,366,277.9,395.7L277.9,395.7z"/>
</g>
<g>
	<path class="st4" d="M184.4,150.9c0-7.4,5.9-13.3,13.1-13.3s13.3,5.9,13.3,13.3c0,7.2-6.1,13.1-13.3,13.1
		C190.1,164.1,184.4,158.2,184.4,150.9z M184.4,216.5c0-7.4,5.9-13.3,13.1-13.3s13.3,5.9,13.3,13.3c0,7.2-6.1,13.1-13.3,13.1
		C190.1,229.6,184.4,223.7,184.4,216.5z"/>
	<path class="st4" d="M229.7,180.6c0-27.4,22.3-49.2,50.1-49.2c27.8,0,50.1,21.7,50.1,49.2c0,27.2-22.3,49-50.1,49
		C252,229.6,229.7,207.9,229.7,180.6z M308.4,180.6c0-16.6-12.4-28.8-28.6-28.8s-28.6,12.2-28.6,28.8c0,16.4,12.4,28.6,28.6,28.6
		S308.4,197,308.4,180.6z"/>
</g>
</svg>
