<svg id="Calque_1" data-name="Calque 1" xmlns="http://www.w3.org/2000/svg" viewBox="0 0 64 64">
  <path d="M9.6,28.76a6.4,6.4,0,1,0-6.4-6.4A6.37,6.37,0,0,0,9.6,28.76Zm44.8,0a6.4,6.4,0,1,0-6.4-6.4A6.37,6.37,0,0,0,54.4,28.76ZM57.6,32H51.2a7.46,7.46,0,0,0-4.62,1.78,14.68,14.68,0,0,1,7.46,11H60.8a3.18,3.18,0,0,0,3.2-3.2v-3.2A6.37,6.37,0,0,0,57.6,32ZM32,32A11.16,11.16,0,0,0,43,20.58a10.85,10.85,0,0,0-11-11A11.46,11.46,0,0,0,20.62,20.94,11.16,11.16,0,0,0,32,32Zm7.82,3.2h-.71A17.43,17.43,0,0,1,32,36.94a14.7,14.7,0,0,1-6.76-1.78H24.18A11.46,11.46,0,0,0,12.8,46.54v2.84c0,2.49,2.13,5,4.62,5h28.8a4.79,4.79,0,0,0,4.62-5V46.54C51.2,40.49,45.87,35.16,39.82,35.16Zm-22.4-1.42A7.46,7.46,0,0,0,12.8,32H6.4A6.37,6.37,0,0,0,0,38.36v3.2a3.18,3.18,0,0,0,3.2,3.2H10a13.61,13.61,0,0,1,7.46-11Z"/>
</svg>
