<svg id="_1" data-name="1" xmlns="http://www.w3.org/2000/svg" viewBox="0 0 512 512">
  <g>
    <circle cx="106.67" cy="192" r="64"/>
    <circle cx="106.67" cy="192" r="42.67"/>
  </g>
  <g>
    <path d="M202.67,384h-192A10.67,10.67,0,0,1,0,373.33V335.4c0-32,24.83-58.07,55.36-58.07H158c30.53,0,55.36,26.05,55.36,58.07v37.93A10.67,10.67,0,0,1,202.67,384Z"/>
    <path d="M21.33,362.67H192V335.4c0-20.26-15.27-36.73-34-36.73H55.36c-18.75,0-34,16.47-34,36.73Z"/>
  </g>
  <g>
    <circle cx="405.33" cy="192" r="64"/>
    <circle cx="405.33" cy="192" r="42.67"/>
  </g>
  <g>
    <path d="M501.33,384h-192a10.67,10.67,0,0,1-10.66-10.67V335.4c0-32,24.83-58.07,55.36-58.07H456.64c30.53,0,55.36,26.05,55.36,58.07v37.93A10.67,10.67,0,0,1,501.33,384Z"/>
    <path d="M320,362.67H490.67V335.4c0-20.26-15.28-36.73-34-36.73H354c-18.76,0-34,16.47-34,36.73Z"/>
  </g>
  <path d="M256,277.33a10.7,10.7,0,0,1-9.54-5.88l-32-64a10.67,10.67,0,0,1,19.1-9.54L256,242.82l22.46-44.91a10.67,10.67,0,0,1,19.1,9.54l-32,64a10.75,10.75,0,0,1-9.56,5.88Z"/>
</svg>
