<?xml version="1.0" encoding="utf-8"?>
<!-- Generator: Adobe Illustrator 25.0.1, SVG Export Plug-In . SVG Version: 6.00 Build 0)  -->
<svg version="1.1" id="Calque_1" xmlns="http://www.w3.org/2000/svg" xmlns:xlink="http://www.w3.org/1999/xlink" x="0px" y="0px"
	 viewBox="0 0 400 400" style="enable-background:new 0 0 400 400;" xml:space="preserve">
<style type="text/css">
	.st0{fill:#07594D;}
	.st1{fill:#2F6F4D;}
	.st2{fill:#8E6939;}
	.st3{fill:#5D73D8;}
	.st4{fill:#778DE0;}
	.st5{fill:#3560BF;}
	.st6{display:none;}
	.st7{display:inline;fill:#3560BF;}
	.st8{display:inline;fill:#EA1818;}
</style>
<g id="Tige">
	<g>
		<path class="st0" d="M269.6,0.1l-66.2,66.5c0,0-1.7-35.5,15.1-52.3S269.6,0.1,269.6,0.1z"/>
		<path class="st1" d="M203.3,66.5L269.5,0c0,0,1.7,35.5-15.1,52.3C237.7,69,203.3,66.5,203.3,66.5z"/>
		<path class="st2" d="M195,12.7h4.1c3.3,0,5.9,2.7,5.9,5.9v72c0,3.3-2.7,5.9-5.9,5.9H195c-3.3,0-5.9-2.7-5.9-5.9v-72
			C189.1,15.4,191.7,12.7,195,12.7z"/>
	</g>
</g>
<g id="Grapes">
	<circle class="st3" cx="160.2" cy="103.7" r="39"/>
	<circle class="st4" cx="242.3" cy="103.7" r="39"/>
	
		<ellipse transform="matrix(0.7071 -0.7071 0.7071 0.7071 -136.6638 189.3062)" class="st3" cx="160.2" cy="259.6" rx="39" ry="39"/>
	<g>
		<path class="st4" d="M208.7,256.6c12.6-16.6,30.4-27.7,50.7-32c-14.5-7.1-32.5-4.6-44.6,7.5c-8.7,8.7-12.4,20.6-11.2,32
			C205.2,261.5,206.9,259,208.7,256.6z"/>
		<path class="st4" d="M270.8,260.9c-12.9,1.7-24.3,8.5-32.2,18.9c-3.9,5.2-6.6,10.9-8.1,16.9c13.4,4.3,28.7,1.1,39.4-9.6
			c7.3-7.3,11.1-16.9,11.4-26.5C277.8,260.4,274.3,260.5,270.8,260.9z"/>
	</g>
	<ellipse transform="matrix(0.7071 -0.7071 0.7071 0.7071 -45.4389 253.6122)" class="st5" cx="283.4" cy="181.7" rx="39" ry="39"/>
	<circle class="st4" cx="116.6" cy="181.7" r="39"/>
	<circle class="st5" cx="199.6" cy="181.7" r="39"/>
	<g>
		<path class="st5" d="M191.4,302c-7.1,1.5-13.9,5-19.4,10.5c-15.2,15.2-15.2,39.9,0,55.1c13,13,33,14.9,48,5.6
			C199.3,354.9,189.3,328.2,191.4,302z"/>
		<path class="st5" d="M238.5,337.6c-0.5-8.1-3.5-16.1-9.1-22.6C230.4,323.1,233.5,330.9,238.5,337.6z"/>
	</g>
</g>
<g class="st6">
	<path class="st7" d="M213.5,260.2c-26.9,35.3-20.1,85.6,15.2,112.5c16.5,12.5,36.2,17.8,55.3,16.2c2.2-0.2,3.8-2.2,3.5-4.4l-2.4-18
		c-0.3-2-2.1-3.5-4.1-3.4c-13.2,0.9-26-2.9-36.6-11c-24.1-18.4-28.1-52.4-10.6-75.8c18.5-24.7,53.2-28.7,76.9-10.4
		c10.8,8.4,18,20.4,20.3,33.9l-18.9,2.6c-6.9,0.9-9.2,9.7-3.7,13.9l34.5,26.3c3.4,2.6,8.3,1.9,10.9-1.5l26.3-34.5
		c4.2-5.5-0.4-13.3-7.2-12.4l-16.2,2.2c-3.1-19.6-13.5-38.2-30.5-51.2C290.9,218.2,240.3,225,213.5,260.2z"/>
	<path class="st8" d="M277.3,395.1c-18.8,0-37.1-6.2-52.2-17.7c-37.8-28.8-45.1-83.1-16.3-120.9l0,0c14-18.3,34.3-30.1,57.2-33.1
		c22.9-3.1,45.6,2.9,63.9,16.9c16.1,12.3,27.2,29.7,31.7,49.3l10.6-1.4c5.5-0.7,10.9,1.9,13.7,6.7c2.8,4.8,2.4,10.8-1,15.3
		l-26.3,34.5c-4.6,6-13.3,7.2-19.3,2.6L304.7,321c-4.4-3.4-6.4-9.1-5-14.5s5.9-9.4,11.5-10.1l12.4-1.7c-2.9-9.5-8.6-17.9-16.6-24.1
		c-10.3-8-23.2-11.5-36.2-9.7c-12.9,1.7-24.3,8.5-32.2,18.9c-15.9,21.2-11.6,51.4,9.4,67.5c9.3,7.1,20.9,10.6,32.6,9.8
		c5.2-0.4,9.8,3.4,10.5,8.5l2.4,18c0.4,2.7-0.4,5.4-2.1,7.5c-1.7,2.1-4.2,3.4-6.9,3.7C282.1,395,279.7,395.1,277.3,395.1z
		 M218.3,263.8c-24.8,32.6-18.5,79.3,14,104.1c14.1,10.7,31.4,16,49,15.1l-1.9-13.8c-13.9,0.5-27.6-3.8-38.7-12.3
		c-26.3-20-31.5-57.8-11.7-84.2c9.8-13.1,24.1-21.5,40.2-23.6c16.2-2.2,32.3,2.1,45.2,12.1c12,9.3,20,22.7,22.5,37.6l1,6.1
		l-25.1,3.4c-1,0.1-1.3,0.8-1.5,1.3s-0.1,1.3,0.6,1.9l34.5,26.3c0.8,0.6,1.9,0.4,2.5-0.3l26.3-34.5c0.6-0.8,0.4-1.5,0.1-2
		c-0.3-0.5-0.8-1-1.8-0.9l-22,3l-0.9-5.8c-3-18.9-13-35.7-28.2-47.4c-15.7-12-35.3-17.2-55-14.6C247.7,238,230.3,248.1,218.3,263.8
		L218.3,263.8z"/>
</g>
<path class="st5" d="M213.5,260.2c-26.9,35.3-20.1,85.6,15.2,112.5c16.5,12.5,36.2,17.8,55.3,16.2c2.2-0.2,3.8-2.2,3.5-4.4l-2.4-18
	c-0.3-2-2.1-3.5-4.1-3.4c-13.2,0.9-26-2.9-36.6-11c-24.1-18.4-28.1-52.4-10.6-75.8c18.5-24.7,53.2-28.7,76.9-10.4
	c10.8,8.4,18,20.4,20.3,33.9l-18.9,2.6c-6.9,0.9-9.2,9.7-3.7,13.9l34.5,26.3c3.4,2.6,8.3,1.9,10.9-1.5l26.3-34.5
	c4.2-5.5-0.4-13.3-7.2-12.4l-16.2,2.2c-3.1-19.6-13.5-38.2-30.5-51.2C290.9,218.2,240.3,225,213.5,260.2z"/>
</svg>
