<!-- Generator: Adobe Illustrator 24.2.1, SVG Export Plug-In  -->
<svg version="1.1" xmlns="http://www.w3.org/2000/svg" xmlns:xlink="http://www.w3.org/1999/xlink" x="0px" y="0px" width="96px"
	 height="115.2px" viewBox="0 0 96 115.2" style="overflow:visible;enable-background:new 0 0 96 115.2;" xml:space="preserve">
<style type="text/css">
	.st0{fill:#07594D;}
	.st1{fill:#2F6F4D;}
	.st2{fill:#8E6939;}
</style>
<defs>
</defs>
<g>
	<path class="st0" d="M96,0.2L17,79.5c0,0-2-42.3,18-62.3C55-2.9,96,0.2,96,0.2z"/>
	<path class="st1" d="M16.9,79.3L95.9,0c0,0,2,42.3-18,62.3C57.9,82.4,16.9,79.3,16.9,79.3z"/>
	<path class="st2" d="M9.5,115.2L9.5,115.2c-5.2,0-9.5-4.3-9.5-9.5l0-81c0-5.2,4.3-9.5,9.5-9.5h0c5.2,0,9.5,4.3,9.5,9.5v81
		C19,110.9,14.7,115.2,9.5,115.2z"/>
</g>
</svg>
